<svg width="50" height="50" viewBox="0 0 50 50" fill="none" xmlns="http://www.w3.org/2000/svg">
<path d="M41.1025 32.7999H8.09746C7.02189 32.7999 6.14996 33.6719 6.14996 34.7475V34.9524C6.14996 36.028 7.02189 36.8999 8.09746 36.8999H41.1025C42.178 36.8999 43.05 36.028 43.05 34.9524V34.7475C43.05 33.6719 42.178 32.7999 41.1025 32.7999Z" fill="white"/>
<path d="M41.1025 22.55H8.09746C7.02189 22.55 6.14996 23.4219 6.14996 24.4975V24.7025C6.14996 25.7781 7.02189 26.65 8.09746 26.65H41.1025C42.178 26.65 43.05 25.7781 43.05 24.7025V24.4975C43.05 23.4219 42.178 22.55 41.1025 22.55Z" fill="white"/>
<path d="M41.1025 12.3H8.09746C7.02189 12.3 6.14996 13.1719 6.14996 14.2475V14.4525C6.14996 15.528 7.02189 16.4 8.09746 16.4H41.1025C42.178 16.4 43.05 15.528 43.05 14.4525V14.2475C43.05 13.1719 42.178 12.3 41.1025 12.3Z" fill="white"/>
</svg>
