<svg width="50" height="50" viewBox="0 0 50 50" fill="none" xmlns="http://www.w3.org/2000/svg">
<path d="M34.8195 11.2848L11.4815 34.6229C10.7209 35.3834 10.7209 36.6165 11.4815 37.3771L11.6264 37.522C12.387 38.2826 13.6201 38.2826 14.3806 37.522L37.7187 14.184C38.4792 13.4234 38.4792 12.1903 37.7187 11.4298L37.5737 11.2848C36.8132 10.5243 35.5801 10.5243 34.8195 11.2848Z" fill="white"/>
<path d="M37.7186 34.9151L14.3805 11.5771C13.62 10.8165 12.3869 10.8165 11.6263 11.5771L11.4814 11.722C10.7208 12.4826 10.7208 13.7157 11.4814 14.4762L34.8194 37.8143C35.58 38.5748 36.8131 38.5748 37.5736 37.8143L37.7186 37.6693C38.4791 36.9088 38.4791 35.6757 37.7186 34.9151Z" fill="white"/>
</svg>
