<svg width="253" height="36" viewBox="0 0 253 36" fill="none" xmlns="http://www.w3.org/2000/svg">
<path d="M242.56 23.52L241.12 0H252.64L251.2 23.52H242.56ZM242.08 35.04V26.88H251.68V35.04H242.08Z" fill="#3B4B2F"/>
<path d="M216.984 35.4398C216.051 35.4398 215.011 35.3732 213.864 35.2398C212.744 35.1065 211.651 34.9332 210.584 34.7198C209.518 34.4798 208.598 34.2265 207.824 33.9598L208.624 28.3598C210.091 28.8665 211.411 29.2398 212.584 29.4798C213.784 29.7198 214.958 29.8398 216.104 29.8398C217.011 29.8398 217.624 29.7598 217.944 29.5998C218.291 29.4132 218.464 29.1065 218.464 28.6798C218.464 28.4665 218.411 28.2932 218.304 28.1598C218.198 27.9998 217.984 27.8665 217.664 27.7598C217.371 27.6532 216.918 27.5332 216.304 27.3998C214.358 26.9198 212.744 26.3598 211.464 25.7198C210.184 25.0532 209.224 24.2665 208.584 23.3598C207.971 22.4532 207.664 21.4132 207.664 20.2398C207.664 18.1332 208.451 16.5465 210.024 15.4798C211.598 14.3865 213.918 13.8398 216.984 13.8398C218.318 13.8398 219.744 13.9465 221.264 14.1598C222.784 14.3732 224.278 14.6798 225.744 15.0798L224.944 20.6798C223.531 20.2265 222.278 19.9065 221.184 19.7198C220.091 19.5332 219.051 19.4398 218.064 19.4398C217.211 19.4398 216.598 19.5198 216.224 19.6798C215.851 19.8132 215.664 20.0665 215.664 20.4398C215.664 20.6532 215.731 20.8398 215.864 20.9998C215.998 21.1598 216.224 21.3065 216.544 21.4398C216.864 21.5465 217.304 21.6665 217.864 21.7998C219.304 22.1198 220.558 22.5198 221.624 22.9998C222.718 23.4532 223.611 23.9732 224.304 24.5598C225.024 25.1198 225.558 25.7598 225.904 26.4798C226.278 27.1998 226.464 27.9865 226.464 28.8398C226.464 30.1465 226.064 31.3065 225.264 32.3198C224.491 33.3065 223.384 34.0798 221.944 34.6398C220.531 35.1732 218.878 35.4398 216.984 35.4398Z" fill="#3B4B2F"/>
<path d="M196.744 35.4398C192.744 35.4398 189.677 34.5065 187.544 32.6398C185.411 30.7732 184.344 28.1065 184.344 24.6398C184.344 21.2798 185.304 18.6398 187.224 16.7198C189.144 14.7998 191.784 13.8398 195.144 13.8398C198.424 13.8398 200.971 14.7598 202.784 16.5998C204.624 18.4132 205.544 20.9598 205.544 24.2398C205.544 24.7198 205.531 25.2532 205.504 25.8398C205.477 26.4265 205.437 26.8265 205.384 27.0398H188.744V22.4398H199.184L198.264 23.8398C198.264 22.1065 198.011 20.8398 197.504 20.0398C197.024 19.2398 196.237 18.8398 195.144 18.8398C194.077 18.8398 193.291 19.2398 192.784 20.0398C192.277 20.8398 192.024 22.1065 192.024 23.8398V26.2398C192.024 27.5198 192.371 28.4398 193.064 28.9998C193.757 29.5598 194.877 29.8398 196.424 29.8398C197.571 29.8398 198.811 29.7332 200.144 29.5198C201.477 29.3065 202.611 29.0398 203.544 28.7198L204.344 34.3198C203.411 34.6665 202.251 34.9332 200.864 35.1198C199.504 35.3332 198.131 35.4398 196.744 35.4398Z" fill="#3B4B2F"/>
<path d="M166.414 35.0402L160.494 14.2402H168.574L171.854 30.2402H171.934L175.214 14.2402H183.294L177.374 35.0402H166.414Z" fill="#3B4B2F"/>
<path d="M145.193 35.4398C143.246 35.4398 141.686 34.8665 140.513 33.7198C139.366 32.5465 138.793 30.9865 138.793 29.0398C138.793 26.7465 139.699 24.9732 141.513 23.7198C143.326 22.4665 145.886 21.8398 149.193 21.8398H151.353C151.353 21.1732 151.286 20.6665 151.153 20.3198C151.046 19.9732 150.819 19.7465 150.473 19.6398C150.126 19.5065 149.619 19.4398 148.953 19.4398C147.646 19.4398 146.219 19.5732 144.673 19.8398C143.126 20.1065 141.699 20.4665 140.393 20.9198L139.593 15.3198C141.033 14.8398 142.673 14.4798 144.513 14.2398C146.353 13.9732 148.193 13.8398 150.033 13.8398C152.273 13.8398 154.059 14.1065 155.393 14.6398C156.726 15.1465 157.686 15.9865 158.273 17.1598C158.886 18.3332 159.193 19.8932 159.193 21.8398V35.0398H151.753L151.673 32.6398H151.593C150.819 33.5198 149.873 34.2132 148.753 34.7198C147.633 35.1998 146.446 35.4398 145.193 35.4398ZM148.233 30.0398C148.873 30.0398 149.419 29.9465 149.873 29.7598C150.353 29.5465 150.713 29.2665 150.953 28.9198C151.219 28.5465 151.353 28.1198 151.353 27.6398V26.0398H150.393C148.819 26.0398 147.659 26.2132 146.913 26.5598C146.193 26.9065 145.833 27.4665 145.833 28.2398C145.833 28.8265 146.033 29.2798 146.433 29.5998C146.859 29.8932 147.459 30.0398 148.233 30.0398Z" fill="#3B4B2F"/>
<path d="M127.494 35.0398V5.83984H135.494V35.0398H127.494ZM111.094 35.0398V5.83984H119.094V35.0398H111.094ZM115.094 23.4398V16.6398H131.494V23.4398H115.094Z" fill="#3B4B2F"/>
<path d="M90.6595 35.4399C87.9128 35.4399 85.9261 34.9199 84.6995 33.8799C83.4728 32.8133 82.8595 31.0666 82.8595 28.6399V19.8399H78.9795V14.2399H82.8595V7.43994H90.7795V14.2399H96.5795V19.8399H90.7795V27.0399C90.7795 27.9733 90.8861 28.6133 91.0995 28.9599C91.3395 29.2799 91.7928 29.4399 92.4595 29.4399C92.9128 29.4399 93.4595 29.3866 94.0995 29.2799C94.7395 29.1733 95.3261 29.0266 95.8595 28.8399L96.4595 34.6399C95.3928 34.9066 94.4061 35.1066 93.4995 35.2399C92.5928 35.3733 91.6461 35.4399 90.6595 35.4399Z" fill="#3B4B2F"/>
<path d="M67.8829 35.4398C66.9496 35.4398 65.9096 35.3732 64.7629 35.2398C63.6429 35.1065 62.5496 34.9332 61.4829 34.7198C60.4162 34.4798 59.4962 34.2265 58.7229 33.9598L59.5229 28.3598C60.9896 28.8665 62.3096 29.2398 63.4829 29.4798C64.6829 29.7198 65.8562 29.8398 67.0029 29.8398C67.9096 29.8398 68.5229 29.7598 68.8429 29.5998C69.1896 29.4132 69.3629 29.1065 69.3629 28.6798C69.3629 28.4665 69.3096 28.2932 69.2029 28.1598C69.0962 27.9998 68.8829 27.8665 68.5629 27.7598C68.2696 27.6532 67.8162 27.5332 67.2029 27.3998C65.2562 26.9198 63.6429 26.3598 62.3629 25.7198C61.0829 25.0532 60.1229 24.2665 59.4829 23.3598C58.8696 22.4532 58.5629 21.4132 58.5629 20.2398C58.5629 18.1332 59.3496 16.5465 60.9229 15.4798C62.4962 14.3865 64.8162 13.8398 67.8829 13.8398C69.2162 13.8398 70.6429 13.9465 72.1629 14.1598C73.6829 14.3732 75.1762 14.6798 76.6429 15.0798L75.8429 20.6798C74.4296 20.2265 73.1762 19.9065 72.0829 19.7198C70.9896 19.5332 69.9496 19.4398 68.9629 19.4398C68.1096 19.4398 67.4962 19.5198 67.1229 19.6798C66.7496 19.8132 66.5629 20.0665 66.5629 20.4398C66.5629 20.6532 66.6296 20.8398 66.7629 20.9998C66.8962 21.1598 67.1229 21.3065 67.4429 21.4398C67.7629 21.5465 68.2029 21.6665 68.7629 21.7998C70.2029 22.1198 71.4562 22.5198 72.5229 22.9998C73.6162 23.4532 74.5096 23.9732 75.2029 24.5598C75.9229 25.1198 76.4562 25.7598 76.8029 26.4798C77.1762 27.1998 77.3629 27.9865 77.3629 28.8398C77.3629 30.1465 76.9629 31.3065 76.1629 32.3198C75.3896 33.3065 74.2829 34.0798 72.8429 34.6398C71.4296 35.1732 69.7762 35.4398 67.8829 35.4398Z" fill="#3B4B2F"/>
<path d="M41.3154 35.4402C38.9687 35.4402 37.2487 34.7736 36.1554 33.4402C35.0621 32.0802 34.5154 29.9469 34.5154 27.0402V14.2402H42.3554V25.4402C42.3554 26.7469 42.5154 27.6802 42.8354 28.2402C43.1821 28.7736 43.7421 29.0402 44.5154 29.0402C45.1021 29.0402 45.6087 28.9202 46.0354 28.6802C46.4887 28.4402 46.8354 28.1069 47.0754 27.6802C47.3421 27.2536 47.4754 26.7736 47.4754 26.2402V14.2402H55.3154V35.0402H47.8754L47.7954 32.6402H47.7154C46.8087 33.6269 45.8487 34.3469 44.8354 34.8002C43.8221 35.2269 42.6487 35.4402 41.3154 35.4402Z" fill="#3B4B2F"/>
<path d="M9.15527e-05 35.0398V5.83984H9.92009L15.1601 21.4398H15.2401L20.4801 5.83984H30.4001V35.0398H22.4001V18.2398H22.3201L18.8001 28.8398H11.6001L8.08009 18.2398H8.00009V35.0398H9.15527e-05Z" fill="#3B4B2F"/>
</svg>
